<svg width="82" height="52" viewBox="0 0 82 52" fill="none" xmlns="http://www.w3.org/2000/svg">
<rect x="0.612988" y="27.9065" width="26.3584" height="1.22597" rx="0.612987" fill="black"/>
<rect y="36.4883" width="26.3584" height="1.22597" rx="0.612987" fill="black"/>
<rect x="4.9039" y="32.1974" width="26.3584" height="1.22597" rx="0.612987" fill="black"/>
<rect x="13.4857" y="4" width="26.3584" height="1.22597" rx="0.612987" fill="#D9D9D9"/>
<rect x="12.8727" y="12.5818" width="26.3584" height="1.22597" rx="0.612987" fill="#D9D9D9"/>
<rect x="17.7766" y="8.29092" width="26.3584" height="1.22597" rx="0.612987" fill="#D9D9D9"/>
<path d="M2.45195 17.2151C2.45195 12.284 6.17239 8.29092 10.7618 8.29092H19.8876C24.4793 8.29092 28.1974 12.284 28.1974 17.2151C28.1974 21.5784 25.2608 25.2999 21.2553 26.0158L21.1461 26.0405C20.1405 26.2195 19.1922 25.4912 19.0256 24.4174C18.8589 23.3373 19.537 22.319 20.537 22.14L20.6462 22.1215C22.8817 21.7204 24.5195 19.6467 24.5195 17.2151C24.5195 14.4687 22.4449 12.2408 19.8876 12.2408H10.7618C8.20445 12.2408 6.12987 14.4687 6.12987 17.2151C6.12987 19.6467 7.76712 21.7204 10.0032 22.1215L10.1124 22.14C11.1123 22.319 11.7904 23.3373 11.6238 24.4174C11.4571 25.4912 10.5089 26.2195 9.50321 26.0405L9.39402 26.0158C5.38911 25.2999 2.45195 21.5784 2.45195 17.2151Z" fill="black"/>
<path opacity="0.4" d="M39.2312 23.2732C39.2312 28.2044 35.513 32.1974 30.9214 32.1974H21.7955C17.2039 32.1974 13.4857 28.2044 13.4857 23.2732C13.4857 18.9099 16.4223 15.1884 20.4278 14.4725L20.537 14.4478C21.5427 14.2688 22.4909 14.9971 22.6575 16.071C22.8242 17.151 22.1461 18.1693 21.1461 18.3483L21.0369 18.3668C18.8015 18.768 17.1636 20.7861 17.1636 23.2732C17.1636 26.0196 19.2382 28.2476 21.7955 28.2476H30.9214C33.4787 28.2476 35.5532 26.0196 35.5532 23.2732C35.5532 20.7861 33.9154 18.768 31.6799 18.3668L31.5707 18.3483C30.5708 18.1693 29.8927 17.151 30.0593 16.071C30.226 14.9971 31.1742 14.2688 32.1799 14.4478L32.2891 14.4725C36.2946 15.1884 39.2312 18.9099 39.2312 23.2732Z" fill="black"/>
<path d="M49.1299 11.12C48.4899 11.12 48.0059 10.94 47.6779 10.58C47.3499 10.212 47.1859 9.688 47.1859 9.008V8.528H48.4339V9.104C48.4339 9.648 48.6619 9.92 49.1179 9.92C49.3419 9.92 49.5099 9.856 49.6219 9.728C49.7419 9.592 49.8019 9.376 49.8019 9.08C49.8019 8.728 49.7219 8.42 49.5619 8.156C49.4019 7.884 49.1059 7.56 48.6739 7.184C48.1299 6.704 47.7499 6.272 47.5339 5.888C47.3179 5.496 47.2099 5.056 47.2099 4.568C47.2099 3.904 47.3779 3.392 47.7139 3.032C48.0499 2.664 48.5379 2.48 49.1779 2.48C49.8099 2.48 50.2859 2.664 50.6059 3.032C50.9339 3.392 51.0979 3.912 51.0979 4.592V4.94H49.8499V4.508C49.8499 4.22 49.7939 4.012 49.6819 3.884C49.5699 3.748 49.4059 3.68 49.1899 3.68C48.7499 3.68 48.5299 3.948 48.5299 4.484C48.5299 4.788 48.6099 5.072 48.7699 5.336C48.9379 5.6 49.2379 5.92 49.6699 6.296C50.2219 6.776 50.6019 7.212 50.8099 7.604C51.0179 7.996 51.1219 8.456 51.1219 8.984C51.1219 9.672 50.9499 10.2 50.6059 10.568C50.2699 10.936 49.7779 11.12 49.1299 11.12ZM52.8636 2.6H54.6516L56.0196 11H54.6996L54.4596 9.332V9.356H52.9596L52.7196 11H51.4956L52.8636 2.6ZM54.3036 8.216L53.7156 4.064H53.6916L53.1156 8.216H54.3036ZM55.9721 2.6H57.3041L58.1681 9.116H58.1921L59.0561 2.6H60.2681L58.9961 11H57.2441L55.9721 2.6ZM60.9022 2.6H64.5022V3.8H62.2222V6.02H64.0342V7.22H62.2222V9.8H64.5022V11H60.9022V2.6ZM50.5478 21.424L48.9518 16.6H50.3558L51.2558 19.684H51.2798L52.1798 16.6H53.4638L51.8678 21.424V25H50.5478V21.424ZM55.7555 25.12C55.1075 25.12 54.6115 24.936 54.2675 24.568C53.9235 24.2 53.7515 23.68 53.7515 23.008V18.592C53.7515 17.92 53.9235 17.4 54.2675 17.032C54.6115 16.664 55.1075 16.48 55.7555 16.48C56.4035 16.48 56.8995 16.664 57.2435 17.032C57.5875 17.4 57.7595 17.92 57.7595 18.592V23.008C57.7595 23.68 57.5875 24.2 57.2435 24.568C56.8995 24.936 56.4035 25.12 55.7555 25.12ZM55.7555 23.92C56.2115 23.92 56.4395 23.644 56.4395 23.092V18.508C56.4395 17.956 56.2115 17.68 55.7555 17.68C55.2995 17.68 55.0715 17.956 55.0715 18.508V23.092C55.0715 23.644 55.2995 23.92 55.7555 23.92ZM60.5722 25.12C59.9322 25.12 59.4442 24.94 59.1082 24.58C58.7722 24.212 58.6042 23.688 58.6042 23.008V16.6H59.9242V23.104C59.9242 23.392 59.9802 23.6 60.0922 23.728C60.2122 23.856 60.3802 23.92 60.5962 23.92C60.8122 23.92 60.9762 23.856 61.0882 23.728C61.2082 23.6 61.2682 23.392 61.2682 23.104V16.6H62.5402V23.008C62.5402 23.688 62.3722 24.212 62.0362 24.58C61.7002 24.94 61.2122 25.12 60.5722 25.12ZM63.4803 16.6H65.4363C66.1163 16.6 66.6123 16.76 66.9243 17.08C67.2363 17.392 67.3923 17.876 67.3923 18.532V19.048C67.3923 19.92 67.1043 20.472 66.5283 20.704V20.728C66.8483 20.824 67.0723 21.02 67.2003 21.316C67.3363 21.612 67.4043 22.008 67.4043 22.504V23.98C67.4043 24.22 67.4123 24.416 67.4283 24.568C67.4443 24.712 67.4843 24.856 67.5483 25H66.2043C66.1563 24.864 66.1243 24.736 66.1083 24.616C66.0923 24.496 66.0843 24.28 66.0843 23.968V22.432C66.0843 22.048 66.0203 21.78 65.8923 21.628C65.7723 21.476 65.5603 21.4 65.2563 21.4H64.8003V25H63.4803V16.6ZM65.2803 20.2C65.5443 20.2 65.7403 20.132 65.8683 19.996C66.0043 19.86 66.0723 19.632 66.0723 19.312V18.664C66.0723 18.36 66.0163 18.14 65.9043 18.004C65.8003 17.868 65.6323 17.8 65.4003 17.8H64.8003V20.2H65.2803ZM45.492 30.6H46.812V37.8H48.984V39H45.492V30.6ZM49.617 30.6H50.937V39H49.617V30.6ZM51.9256 30.6H53.5816L54.8656 35.628H54.8896V30.6H56.0656V39H54.7096L53.1256 32.868H53.1016V39H51.9256V30.6ZM57.0467 30.6H58.3667V34.14L60.0467 30.6H61.3667L59.7947 33.684L61.3907 39H60.0107L58.8947 35.256L58.3667 36.324V39H57.0467V30.6ZM62.1234 34.104V30.6H63.4434V34.104L63.2754 36.78H62.2914L62.1234 34.104ZM62.1474 37.728H63.4194V39H62.1474V37.728Z" fill="black"/>
</svg>
