<svg width="20" height="25" viewBox="0 0 20 25" fill="none" xmlns="http://www.w3.org/2000/svg">
<path d="M18.5714 6.25H1.42857C0.639732 6.25 0 5.55176 0 4.6875C0 3.82471 0.639732 3.125 1.42857 3.125H18.5714C19.3616 3.125 20 3.82471 20 4.6875C20 5.55176 19.3616 6.25 18.5714 6.25ZM18.5714 21.875H1.42857C0.639732 21.875 0 21.1768 0 20.3125C0 19.4482 0.639732 18.75 1.42857 18.75H18.5714C19.3616 18.75 20 19.4482 20 20.3125C20 21.1768 19.3616 21.875 18.5714 21.875Z" fill="black"/>
<path opacity="0.4" d="M0 12.5C0 11.6357 0.639732 10.9375 1.42857 10.9375H18.5714C19.3616 10.9375 20 11.6357 20 12.5C20 13.3643 19.3616 14.0625 18.5714 14.0625H1.42857C0.639732 14.0625 0 13.3643 0 12.5Z" fill="black"/>
</svg>
