<svg width="22" height="27" viewBox="0 0 22 27" fill="none" xmlns="http://www.w3.org/2000/svg">
<g clip-path="url(#clip0_6_105)">
<path d="M2.67676 16C2.49641 16 2.317 15.9267 2.1796 15.7803C1.90494 15.4873 1.90494 15.0128 2.1796 14.7196L11.0595 5.24777C11.3341 4.9548 11.779 4.9548 12.0538 5.24777C12.3286 5.54074 12.3285 6.01527 12.0538 6.3084L3.17393 15.7803C3.0629 15.9281 2.8836 16 2.67676 16Z" fill="black"/>
<path opacity="0.4" d="M15.6846 7.53436L12.2861 8.99999H15.05C14.8241 9.46405 14.5728 9.91499 14.2921 10.3441L10.4103 12H12.9195C11.1811 13.6472 8.69785 14.5109 5.17051 13.6506L12.0816 6.27874C12.3563 5.98577 12.3563 5.51124 12.0816 5.21811C11.807 4.92499 11.3621 4.92514 11.0873 5.21811L4.20049 12.5656C1.91337 1.93655 12.6201 0.263613 16.0303 0.00263182C16.5831 -0.0396807 17.0384 0.446069 16.9985 1.03544C16.9033 2.45405 16.6045 5.05624 15.6846 7.53436Z" fill="black"/>
</g>
<path d="M2.208 25.12C1.568 25.12 1.084 24.94 0.756 24.58C0.428 24.212 0.264 23.688 0.264 23.008V22.528H1.512V23.104C1.512 23.648 1.74 23.92 2.196 23.92C2.42 23.92 2.588 23.856 2.7 23.728C2.82 23.592 2.88 23.376 2.88 23.08C2.88 22.728 2.8 22.42 2.64 22.156C2.48 21.884 2.184 21.56 1.752 21.184C1.208 20.704 0.828 20.272 0.612 19.888C0.396 19.496 0.288 19.056 0.288 18.568C0.288 17.904 0.456 17.392 0.792 17.032C1.128 16.664 1.616 16.48 2.256 16.48C2.888 16.48 3.364 16.664 3.684 17.032C4.012 17.392 4.176 17.912 4.176 18.592V18.94H2.928V18.508C2.928 18.22 2.872 18.012 2.76 17.884C2.648 17.748 2.484 17.68 2.268 17.68C1.828 17.68 1.608 17.948 1.608 18.484C1.608 18.788 1.688 19.072 1.848 19.336C2.016 19.6 2.316 19.92 2.748 20.296C3.3 20.776 3.68 21.212 3.888 21.604C4.096 21.996 4.2 22.456 4.2 22.984C4.2 23.672 4.028 24.2 3.684 24.568C3.348 24.936 2.856 25.12 2.208 25.12ZM5.94169 16.6H7.72969L9.09769 25H7.77769L7.53769 23.332V23.356H6.03769L5.79769 25H4.57369L5.94169 16.6ZM7.38169 22.216L6.79369 18.064H6.76969L6.19369 22.216H7.38169ZM9.05025 16.6H10.3823L11.2463 23.116H11.2703L12.1343 16.6H13.3463L12.0742 25H10.3223L9.05025 16.6ZM13.9803 16.6H17.5803V17.8H15.3003V20.02H17.1123V21.22H15.3003V23.8H17.5803V25H13.9803V16.6ZM18.4477 20.104V16.6H19.7677V20.104L19.5997 22.78H18.6157L18.4477 20.104ZM18.4717 23.728H19.7437V25H18.4717V23.728Z" fill="black"/>
<defs>
<clipPath id="clip0_6_105">
<rect width="15" height="16" fill="white" transform="translate(2)"/>
</clipPath>
</defs>
</svg>
