<svg width="34" height="35" viewBox="0 0 34 35" fill="none" xmlns="http://www.w3.org/2000/svg">
<ellipse cx="17" cy="17.5" rx="17" ry="17.5" fill="#CA6702"/>
<path d="M19.4188 7C19.9049 7 20.3509 7.28088 20.5679 7.72557L20.8571 8.3125H24.7143C25.4254 8.3125 26 8.90025 26 9.625C26 10.3497 25.4254 10.9375 24.7143 10.9375H9.28571C8.57576 10.9375 8 10.3497 8 9.625C8 8.90025 8.57576 8.3125 9.28571 8.3125H13.1429L13.4321 7.72557C13.6491 7.28088 14.0951 7 14.5813 7H19.4188Z" fill="black"/>
<path opacity="0.4" d="M9.28571 10.9375H24.7143L23.8545 26.1461C23.7942 27.1879 22.9504 28 21.9299 28H12.0701C11.0483 28 10.2042 27.1879 10.1451 26.1461L9.28571 10.9375Z" fill="black"/>
</svg>
